<svg xmlns="http://www.w3.org/2000/svg" version="1.1" xmlns:xlink="http://www.w3.org/1999/xlink" xmlns:svgjs="http://svgjs.dev/svgjs" width="2000" height="1500" viewBox="0 0 2000 1500"><rect width="2000" height="1500" fill="#444444"></rect><g transform="matrix(0.4444444444444444,0,0,0.4444444444444444,555.5555555555557,250)"><svg viewBox="0 0 320 360" data-background-color="#444444" preserveAspectRatio="xMidYMid meet" height="2250" width="2000" xmlns="http://www.w3.org/2000/svg" xmlns:xlink="http://www.w3.org/1999/xlink"><g id="tight-bounds" transform="matrix(1,0,0,1,0,0)"><svg viewBox="0 0 320 360" height="360" width="320"><g><svg></svg></g><g><svg viewBox="0 0 320 360" height="360" width="320"><g><path d="M20.961 227.22l3.726 4.658-1.863-6.056c-0.466-2.795-3.726 0.466-1.863 1.398M25.153 224.425c1.397 2.329 2.795 4.658 2.795 6.987 0 3.261 2.795 4.658 5.123 5.589-3.261-3.726-5.124-13.974-7.918-12.576M204.017 26.929c7.918 0 15.371-0.932 23.756 0.931 20.495 5.124 37.729 15.371 49.374 29.811l32.606 52.169c1.397 13.042 4.192 27.482 3.726 43.319 3.261 0 2.795-4.658 6.521-5.59-3.726 9.316-5.59 20.961-6.521 34.469-2.329-7.453 0-18.632 0.466-24.687-3.261 5.124-5.124 1.397-5.124-0.932 0.466-3.726-1.397-3.261-2.795-4.658-5.124-4.658-8.384-9.782-12.11-17.7 2.329-6.055 2.795-14.905-4.658-19.563-2.329-1.397-5.124-3.726-6.521-7.453-1.863-5.124-5.124-11.179-4.193-19.097 0.466-2.329-6.987 5.124-11.179 1.863-18.166-12.576-36.332-27.016-58.224-39.127-11.645 0-20.029-4.192-24.221-9.316-3.726-4.658-0.932-10.713 4.658-11.179 3.261 0 6.987-0.932 9.782 0.932 0.466-1.863 2.329-4.192 4.657-4.192M157.904 16.215l0.932 0.466c4.658 0.932 6.987 7.453 12.11 5.124 0 3.261 0.466 6.521-0.466 8.85-1.397 3.726-5.59 3.726-8.85 3.726-31.208-1.863-49.374 11.179-68.471 22.358-5.124 3.261-10.713 5.59-14.906 9.782-20.029 18.632-41.921 35.866-47.045 70.335l-4.192 38.195c-0.466 4.192-5.124 8.384-4.192 13.508l3.26 22.824c-3.261-3.261-5.124 0.932-4.192 2.795 0.466 1.397 2.329 6.055 5.124 1.863 3.726 6.987 7.453 20.495 12.576 26.55 15.837 18.632 36.332 35.4 53.101 52.169 4.192-0.932 7.453-0.932 8.384-3.727 1.397 2.795-1.397 5.59-3.726 6.056 7.453 4.658 15.837 8.85 27.016 9.781 14.44 0.932 27.948 3.261 40.524 6.522 6.521-1.863 13.042-2.795 20.029-3.261 2.329 0 3.726-3.726 6.521-4.658l0.466-4.658c2.795 4.192 2.329-1.397 0.466-4.192 3.261 2.795 4.192 5.124 5.589 6.987 0-1.397 3.726-6.521 3.727-0.466l0.931-6.055c1.397-0.932 1.863 5.124 3.261 0.931 1.397-4.192 4.192-0.932 6.987-2.329-0.932 1.863-0.466 5.59 2.794 3.261l3.727-3.261c2.329 5.59 6.055 3.261 7.918 2.329 20.495-13.042 40.99-28.413 60.553-43.784l-0.466 6.055 2.329-7.453c2.329 2.329 4.192 0.466 5.124-0.931 2.795-4.658 6.521-9.316 12.577-13.508-7.453 20.029-16.303 35.866-27.482 48.908l-4.658 5.59c0 3.261-0.932 7.453-4.658 7.918-1.863 0.466-5.59-0.932-8.384 1.863-1.397 1.863 3.261 5.59-0.466 2.795-3.261-2.329-6.521 0-10.248 0.932-2.795 0.932 1.863 3.726 2.795 5.589 0.932 1.863 1.863 3.726 1.398 6.056l-5.124-5.59c-6.055 3.261-9.782 9.316-14.906 13.974-2.329 1.863-1.397 5.124-1.397 7.918-3.261 0-6.987-0.932-8.85 0.932-1.397 1.863-0.932 4.658-0.932 7.453-4.658-0.466-5.124-7.453-9.315-6.056-4.192 0.932-8.85 1.397-12.577 3.727 2.795 5.59-4.658 2.329-3.726 3.26-6.987-4.192-13.042-7.453-20.495-4.658-15.837-5.124-35.4-2.795-49.84-0.931 0-2.329 0.466-4.658-0.466-5.124-0.932 2.329-3.726 1.397-3.26 1.397-8.85-6.055-17.7-9.782-27.016-14.905-8.384 0.932-16.303-3.261-18.632-5.59-6.521-6.055-13.974-2.795-20.029-4.192-13.042-3.261-17.7-16.769-19.098-26.084-0.932-4.658-4.658-6.521-6.055-6.056-6.055-19.563-15.371-37.263-22.824-55.429-1.863-4.658-1.397-9.316-1.397-14.44 2.329 0.932 4.658 0.466 4.192-2.794-2.329-15.371-7.918-27.016-13.974-38.195 3.261-15.837 3.726-34.469 11.179-48.443 6.521-12.576 18.632-19.098 27.016-29.811 2.795-3.726 2.795-8.85 5.59-12.11 9.316-9.316 18.632-19.098 28.879-27.482 4.658-3.726 10.247 0 17.234-1.397 2.329-8.384 11.645-15.837 20.495-13.508 3.726 0.932 11.179-8.85 13.508-9.782 3.726-1.397 1.863 3.726 1.863 6.987 8.85-6.987 20.961-10.713 32.14-14.906" fill="#ffffff" fill-rule="nonzero" stroke="none" stroke-width="1" stroke-linecap="butt" stroke-linejoin="miter" stroke-miterlimit="10" stroke-dasharray="" stroke-dashoffset="0" font-family="none" font-weight="none" font-size="none" text-anchor="none" style="mix-blend-mode: normal" data-fill-palette-color="tertiary"></path></g><g transform="matrix(1,0,0,1,64,155.9784760550568)"><svg viewBox="0 0 192 48.043047889886395" height="48.043047889886395" width="192"><g><svg viewBox="0 0 271.557725543991 67.95031673530514" height="48.043047889886395" width="192"><g transform="matrix(1,0,0,1,0,9.391107450393115)"><svg viewBox="0 0 192 49.16810183451891" height="49.16810183451891" width="192"><g id="textblocktransform"><svg viewBox="0 0 192 49.16810183451891" height="49.16810183451891" width="192" id="textblock"><g><svg viewBox="0 0 192 49.16810183451891" height="49.16810183451891" width="192"><g transform="matrix(1,0,0,1,0,0)"><svg width="192" viewBox="1.59 -33.15 130.53 33.39" height="49.16810183451891" data-palette-color="#ffffff"><g class="wordmark-text-0" data-fill-palette-color="primary" id="text-0"><path d="M4.76-24.05L11.3-3.34 17.48-24.05 20.68-24.05 12.96 0 9.62 0 1.59-24.05 4.76-24.05ZM34.67-21.85L34.67-21.85Q31.59-21.85 29.95-19.71 28.32-17.58 28.02-13.65L28.02-13.65 40.4-13.65 40.4-14.87Q40.4-18.07 38.85-19.96 37.3-21.85 34.67-21.85ZM35.08-2.34L35.08-2.34Q38.84-2.34 41.92-4.3L41.92-4.3 42.87-1.83Q41.21-0.81 39.16-0.28 37.11 0.24 35.25 0.24L35.25 0.24Q30.32 0.24 27.61-2.73 24.9-5.71 24.9-12.11L24.9-12.11Q24.9-18.24 27.54-21.33 30.17-24.41 34.64-24.41L34.64-24.41Q38.67-24.41 40.99-21.78 43.31-19.14 43.31-14.75L43.31-14.75Q43.31-13.75 43.11-11.45L43.11-11.45 28.02-11.45Q28.05-9.28 28.46-7.63 28.88-5.98 29.51-4.99 30.15-4 31.09-3.39 32.03-2.78 32.98-2.56 33.93-2.34 35.08-2.34ZM52.34-20.07L52.34-20.07 52.34 0 49.21 0 49.21-24.05 51.78-24.05 52-22.49Q54.39-23.61 56-24.01 57.61-24.41 59.47-24.41L59.47-24.41Q63.18-24.41 64.95-22.39 66.72-20.36 66.72-16.19L66.72-16.19 66.72 0 63.59 0 63.59-16.31Q63.59-19.29 62.65-20.57 61.71-21.85 59.3-21.85L59.3-21.85Q55.59-21.85 52.34-20.07ZM76.38 0L73.26 0 73.26-33.15 76.38-33.15 76.38-12.06Q83.83-20.02 87.39-24.05L87.39-24.05 91.13-24.05 80.97-12.74 92.01 0 88.4 0Q86.3-2.34 84.01-4.96 81.73-7.57 80.49-9.03L80.49-9.03 79.24-10.47 78.61-11.18 76.38-9.2 76.38 0ZM98.31-6.79L98.31-6.79Q98.31-2.25 103.58-2.25L103.58-2.25Q105.14-2.25 106.76-2.71 108.39-3.17 109.44-3.86L109.44-3.86 109.44-11.55 108.07-11.55Q106.9-11.55 105.92-11.49 104.95-11.43 103.75-11.28 102.55-11.13 101.65-10.79 100.75-10.45 99.95-9.95 99.16-9.45 98.73-8.64 98.31-7.84 98.31-6.79ZM97.38-20.58L96.77-23Q101.09-24.41 104.29-24.41L104.29-24.41Q106.09-24.41 107.53-23.91 108.97-23.41 110.11-22.35 111.24-21.29 111.87-19.45 112.49-17.6 112.49-15.06L112.49-15.06 112.49 0 110.24 0 109.76-1.61Q108.88-0.9 106.92-0.33 104.97 0.24 103.09 0.24L103.09 0.24Q99.57 0.24 97.48-1.59 95.38-3.42 95.38-6.93L95.38-6.93Q95.38-8.06 95.73-9.02 96.08-9.99 96.95-10.89 97.82-11.79 99.15-12.44 100.48-13.09 102.55-13.46 104.63-13.84 107.29-13.84L107.29-13.84 109.44-13.84 109.44-14.62Q109.41-18.63 108.03-20.24 106.66-21.85 104.14-21.85L104.14-21.85Q103.77-21.85 103.35-21.81 102.92-21.78 102.6-21.74 102.28-21.7 101.74-21.59 101.19-21.48 100.93-21.45 100.67-21.41 100.01-21.25 99.36-21.09 99.18-21.04 99.01-21 98.24-20.8 97.48-20.61 97.38-20.58L97.38-20.58ZM127.5 0.24L127.5 0.24Q125.55 0.2 124.29-0.39 123.03-0.98 122.33-2.23 121.62-3.49 121.35-5.19 121.08-6.88 121.08-9.47L121.08-9.47 121.08-21.85 117.35-21.85 117.35-24.05 121.18-24.05 121.79-30.93 124.21-30.93 124.21-24.05 131.73-24.05 131.73-21.85 124.21-21.85 124.21-9.42Q124.21-7.08 124.46-5.62 124.72-4.15 125.32-3.45 125.92-2.76 126.57-2.55 127.23-2.34 128.33-2.34L128.33-2.34Q130.85-2.34 131.99-2.51L131.99-2.51 132.12 0Q130.16 0.24 127.5 0.24Z" fill="#ffffff" data-fill-palette-color="primary"></path></g></svg></g></svg></g></svg></g></svg></g><g transform="matrix(1,0,0,1,203.60740880868588,0)"><svg viewBox="0 0 67.95031673530514 67.95031673530514" height="67.95031673530514" width="67.95031673530514"><g data-palette-color="#00d1cd"><rect width="18.573086574316736" height="67.95031673530514" fill="#00d1cd" stroke="transparent" data-fill-palette-color="accent" x="0" fill-opacity="1"></rect><rect width="18.573086574316736" height="67.95031673530514" fill="#00d1cd" stroke="transparent" data-fill-palette-color="accent" x="22.650105578435046" fill-opacity="0.75"></rect><rect width="18.573086574316736" height="67.95031673530514" fill="#00d1cd" stroke="transparent" data-fill-palette-color="accent" x="45.30021115687009" fill-opacity="0.5"></rect></g></svg></g></svg></g></svg></g></svg></g><defs></defs></svg><rect width="320" height="360" fill="none" stroke="none" visibility="hidden"></rect></g></svg></g></svg>