<svg xmlns="http://www.w3.org/2000/svg" version="1.1" xmlns:xlink="http://www.w3.org/1999/xlink" xmlns:svgjs="http://svgjs.dev/svgjs" width="1000" height="750" viewBox="0 0 1000 750"><rect width="1000" height="750" fill="#1e421d"></rect><g transform="matrix(0.834,0,0,0.834,82.49454545454546,249.89442221189975)"><svg viewBox="0 0 396 119" data-background-color="#1e421d" preserveAspectRatio="xMidYMid meet" height="300" width="1000" xmlns="http://www.w3.org/2000/svg" xmlns:xlink="http://www.w3.org/1999/xlink"><g id="tight-bounds" transform="matrix(1,0,0,1,0.2400000000000091,0.002652904811867529)"><svg viewBox="0 0 395.52 118.99469419037628" height="118.99469419037628" width="395.52"><g><svg viewBox="0 0 627.0235840247783 188.64401201249547" height="118.99469419037628" width="395.52"><g transform="matrix(1,0,0,1,231.5035840247783,26.07163986569222)"><svg viewBox="0 0 395.52 136.50073228111103" height="136.50073228111103" width="395.52"><g id="textblocktransform"><svg viewBox="0 0 395.52 136.50073228111103" height="136.50073228111103" width="395.52" id="textblock"><g><svg viewBox="0 0 395.52 73.621972497951" height="73.621972497951" width="395.52"><g transform="matrix(1,0,0,1,0,0)"><svg width="395.52" viewBox="-0.59 -33.67 268.06 49.91" height="73.621972497951" data-palette-color="#e1e587"><path d="M-0.59-18.51L-0.59-18.51-0.59-19.63 7.71-19.63 7.71-18.51Q5.64-18.51 5.49-17.46L5.49-17.46Q5.42-16.85 5.96-15.33L5.96-15.33 10.16-3.81 14.79-16.72Q15.26-17.97 13.84-18.36L13.84-18.36Q13.33-18.51 12.7-18.51L12.7-18.51 12.7-19.63 19.46-19.63 19.46-18.51Q17.82-18.46 17.19-17.48L17.19-17.48Q16.92-17.07 16.31-15.48L16.31-15.48 10.3 0.27 8.76 0.27 2.98-14.77Q2.1-17.07 1.32-17.77L1.32-17.77Q0.56-18.51-0.59-18.51ZM29.32-20.17L29.32-20.17Q34.01-20.17 35.2-16.5L35.2-16.5Q35.74-14.84 35.5-13.26L35.5-13.26 23.8-13.26Q23.48-11.5 23.48-9.99L23.48-9.99Q23.48-4.83 26.56-2.95L26.56-2.95Q28.2-1.95 30.49-1.95L30.49-1.95Q32.88-1.95 35.3-3.71L35.3-3.71 36.01-2.98 35.32-2.17Q32.54 0.73 28.73 0.76L28.73 0.76Q26.46 0.76 24.53-0.61L24.53-0.61Q20.65-3.37 20.65-8.96L20.65-8.96Q20.65-14.87 23.95-17.92L23.95-17.92Q26.44-20.09 29.32-20.17ZM24.05-14.84L24.05-14.84 32.35-14.84Q32.35-16.77 31.47-17.71 30.59-18.65 29.22-18.65L29.22-18.65Q27.1-18.65 25.75-17.4 24.41-16.14 24.05-14.84ZM51.51-17.9L51.51-17.9Q48.02-17.9 45.38-16.04L45.38-16.04 45.38-5.1Q45.38-2.86 45.7-2.19 46.02-1.51 47.19-1.27L47.19-1.27 48.63-1 48.63 0 39.37 0 39.37-1.03 41.06-1.39Q41.96-1.59 42.18-1.95L42.18-1.95Q42.38-2.37 42.38-3.74L42.38-3.74 42.38-14.72Q42.38-16.48 42.06-16.94L42.06-16.94Q41.47-17.6 39.5-17.63L39.5-17.63 39.37-18.46 45.38-19.97 45.38-17.82Q49.53-20.09 52.49-20.09L52.49-20.09Q56.2-20.09 57.49-16.77L57.49-16.77Q58.12-15.16 58.12-12.84L58.12-12.84 58.12-5.05Q58.12-2.81 58.45-2.14 58.78-1.46 59.91-1.25L59.91-1.25 61.35-0.95 61.35 0 52.12 0 52.12-1 53.78-1.34Q54.71-1.54 54.9-1.93L54.9-1.93Q55.1-2.34 55.1-3.71L55.1-3.71 55.1-12.06Q55.05-17.85 51.51-17.9ZM64.25-32.1L70.11-33.67 70.11-11.89 76.58-17.04Q77.68-17.97 76.58-18.26L76.58-18.26 75.51-18.55 75.51-19.58 83.34-19.58 83.34-18.58Q81.36-18.29 79.31-16.97L79.31-16.97 72.89-12.33 79.78-4.81Q81.93-2.49 82.37-2.08L82.37-2.08Q83.68-0.9 84.86-0.9L84.86-0.9 84.86 0 76.38 0 76.38-0.9Q78.24-1.12 78.14-1.95L78.14-1.95Q78.09-2.25 77.82-2.54L77.82-2.54 70.11-11.23 70.11-5.54Q70.11-3.25 70.48-2.44L70.48-2.44Q70.92-1.49 73.33-0.9L73.33-0.9 73.33 0 64.13 0 64.13-0.9Q64.27-0.95 65.18-1.12L65.18-1.12Q67.2-1.54 67.2-4.05L67.2-4.05 67.2-28.69Q67.2-30.18 67.01-30.54L67.01-30.54Q66.59-31.32 64.37-31.32L64.37-31.32 64.25-32.1ZM102.5-2.78L103.33-2.08Q103.29-1.95 102.98-1.49 102.68-1.03 102.2-0.51 101.72 0 101.11 0.4 100.5 0.81 99.84 0.81L99.84 0.81Q98.89 0.81 98.31 0.37 97.72-0.07 97.38-0.73 97.04-1.39 96.89-2.14 96.74-2.88 96.69-3.47L96.69-3.47Q96.52-3.32 96.06-2.64 95.6-1.95 94.81-1.18 94.03-0.42 92.9 0.2 91.76 0.81 90.27 0.81L90.27 0.81Q89.54 0.81 88.75 0.61 87.95 0.42 87.32-0.06 86.68-0.54 86.27-1.35 85.85-2.17 85.85-3.39L85.85-3.39Q85.85-5.13 87-6.27 88.15-7.42 89.86-8.08 91.57-8.74 93-9.05 94.42-9.35 96.4-9.74L96.4-9.74 96.4-13.82Q96.4-14.36 96.36-15.17 96.33-15.99 96.07-16.76 95.82-17.53 95.24-18.08 94.67-18.63 93.59-18.63L93.59-18.63Q92.28-18.63 91.43-18.12 90.59-17.6 90.2-17.19 89.81-16.77 89.13-15.97L89.13-15.97Q88.3-15.87 87.82-16 87.34-16.14 87.04-16.42 86.73-16.7 86.73-17.19L86.73-17.19Q86.73-17.9 87.81-18.53 88.88-19.17 90.6-19.67 92.32-20.17 93.86-20.17L93.86-20.17Q95.25-20.17 96.21-19.76 97.16-19.36 97.77-18.66 98.38-17.97 98.7-17.05 99.01-16.14 99.15-15.11 99.28-14.09 99.29-13.01 99.31-11.94 99.31-10.94L99.31-10.94Q99.31-9.08 99.26-7.32 99.21-5.57 99.28-4.19 99.36-2.81 99.66-1.97 99.97-1.12 100.67-1.12L100.67-1.12Q101.58-1.12 102.5-2.78L102.5-2.78ZM96.4-6.13L96.4-8.13Q94.42-7.84 93.02-7.47 91.62-7.1 90.8-6.54 89.98-5.98 89.55-5.29 89.13-4.59 89.13-3.59L89.13-3.59Q89.13-1.15 91.27-1.15L91.27-1.15Q92.06-1.15 92.89-1.71 93.72-2.27 94.42-3.06 95.13-3.86 95.67-4.71 96.21-5.57 96.4-6.13L96.4-6.13ZM115.15-19.58L115.15-17.75 110.07-17.75 110.07-8.03Q110.07-5.93 110.12-4.09 110.17-2.25 110.69-1.57 111.22-0.9 112.22-0.9L112.22-0.9Q114-0.9 116.03-1.88L116.03-1.88 116.03-0.56Q113.44 0.81 111.61 0.81L111.61 0.81Q109.88 0.81 108.94 0.23 108-0.34 107.57-1.26 107.14-2.17 107.07-3.32 106.99-4.47 106.99-5.62L106.99-5.62 106.99-16.09Q106.99-16.63 106.98-16.92 106.97-17.21 106.88-17.43 106.8-17.65 106.48-17.7 106.16-17.75 105.53-17.75L105.53-17.75 104.16-17.75 104.16-18.9Q106.51-19.9 107.38-20.83 108.26-21.75 109.26-24.05L109.26-24.05 110.07-24.05 110.07-19.58 115.15-19.58ZM116.86 0Q116.86 0 116.86 0ZM127.84-32.1L133.7-33.67 133.7-11.89 140.17-17.04Q141.27-17.97 140.17-18.26L140.17-18.26 139.09-18.55 139.09-19.58 146.93-19.58 146.93-18.58Q144.95-18.29 142.9-16.97L142.9-16.97 136.48-12.33 143.37-4.81Q145.51-2.49 145.95-2.08L145.95-2.08Q147.27-0.9 148.44-0.9L148.44-0.9 148.44 0 139.97 0 139.97-0.9Q141.83-1.12 141.73-1.95L141.73-1.95Q141.68-2.25 141.41-2.54L141.41-2.54 133.7-11.23 133.7-5.54Q133.7-3.25 134.06-2.44L134.06-2.44Q134.5-1.49 136.92-0.9L136.92-0.9 136.92 0 127.72 0 127.72-0.9Q127.86-0.95 128.77-1.12L128.77-1.12Q130.79-1.54 130.79-4.05L130.79-4.05 130.79-28.69Q130.79-30.18 130.6-30.54L130.6-30.54Q130.18-31.32 127.96-31.32L127.96-31.32 127.84-32.1ZM148.66-9.35L148.66-9.35Q148.66-13.79 151.2-16.88 153.74-19.97 157.38-19.97L157.38-19.97Q161.06-19.97 163.82-17.09 166.58-14.21 166.58-9.84L166.58-9.84Q166.58-5.47 164.19-2.56L164.19-2.56Q161.43 0.78 157.84 0.78L157.84 0.78Q154.01 0.81 151.35-2.09 148.69-4.98 148.66-9.35ZM157.01-18.14L157.01-18.14Q154.42-18.14 153.03-15.8 151.64-13.45 151.64-9.96L151.64-9.96Q151.64-6.49 153.41-3.77 155.18-1.05 158.09-1.03L158.09-1.03Q160.8-1.03 162.15-3.41 163.51-5.79 163.51-9.01L163.51-9.01Q163.51-12.45 161.85-15.28 160.19-18.12 157.01-18.14ZM174.9 0.17L174.9 0.17 174.9 11.3Q174.9 13.38 175.38 14.04 175.86 14.7 177.64 15.19L177.64 15.19 178.25 15.36 178.25 16.24 168.97 16.24 168.97 15.33Q170.92 14.99 171.44 14.31 171.95 13.62 171.95 12.62L171.95 12.62 171.95-14.72Q171.95-16.38 171.78-16.77L171.78-16.77Q171.41-17.63 169.04-17.63L169.04-17.63 168.92-18.46 174.9-19.97 174.9-18.26Q177.42-20.09 180.59-20.09L180.59-20.09Q184.08-20.09 186.57-17.52 189.06-14.94 189.06-10.12 189.06-5.3 186.26-2.37L186.26-2.37Q183.25 0.78 179.2 0.81L179.2 0.81Q177.15 0.81 174.9 0.17ZM174.93-16.28L174.9-2.27Q176.69-1.07 178.98-1.07L178.98-1.07Q181.67-1.07 183.88-2.97 186.09-4.86 186.09-9.11L186.09-9.11Q186.09-12.92 184.63-14.81 183.18-16.7 181.76-17.3 180.35-17.9 178.93-17.82L178.93-17.82Q176.96-17.72 174.93-16.28L174.93-16.28ZM197.02 0.17L197.02 0.17 197.02 11.3Q197.02 13.38 197.5 14.04 197.97 14.7 199.76 15.19L199.76 15.19 200.37 15.36 200.37 16.24 191.09 16.24 191.09 15.33Q193.04 14.99 193.55 14.31 194.07 13.62 194.07 12.62L194.07 12.62 194.07-14.72Q194.07-16.38 193.9-16.77L193.9-16.77Q193.53-17.63 191.16-17.63L191.16-17.63 191.04-18.46 197.02-19.97 197.02-18.26Q199.54-20.09 202.71-20.09L202.71-20.09Q206.2-20.09 208.69-17.52 211.18-14.94 211.18-10.12 211.18-5.3 208.37-2.37L208.37-2.37Q205.37 0.78 201.32 0.81L201.32 0.81Q199.27 0.81 197.02 0.17ZM197.05-16.28L197.02-2.27Q198.8-1.07 201.1-1.07L201.1-1.07Q203.78-1.07 205.99-2.97 208.2-4.86 208.2-9.11L208.2-9.11Q208.2-12.92 206.75-14.81 205.3-16.7 203.88-17.3 202.47-17.9 201.05-17.82L201.05-17.82Q199.07-17.72 197.05-16.28L197.05-16.28ZM213.01-18.65L213.01-18.65 213.01-19.63 218.6-19.63 218.6-9.42Q218.6-9.08 218.53-7.08L218.53-7.08Q218.33-1.39 222.51-1.34L222.51-1.34Q224.83-1.34 226.54-3.2 228.24-5.05 228.24-7.4L228.24-7.4 228.24-13.33Q228.24-16.58 227.95-17.46L227.95-17.46Q227.56-18.63 225.17-18.63L225.17-18.63 225.17-19.63 231.27-19.63 231.27-5.3Q231.27-2.64 232.37-2.12L232.37-2.12Q232.88-1.9 234.32-1.98L234.32-1.98 234.45-1.12 229.12 0.71 228.24-2.51 227.44-1.73Q224.58 0.73 221.43 0.76L221.43 0.76Q217.53 0.76 216.28-2.22L216.28-2.22Q215.55-3.98 215.55-7.01L215.55-7.01 215.55-14.65Q215.55-17.65 214.3-18.46L214.3-18.46Q213.74-18.8 213.01-18.65ZM237.76-32.1L243.62-33.67 243.62-5.54Q243.62-3.34 243.77-2.83L243.77-2.83Q244.04-1.86 245.21-1.37L245.21-1.37Q245.84-1.12 246.85-0.9L246.85-0.9 246.85 0 237.64 0 237.64-0.9Q237.79-0.95 238.69-1.12L238.69-1.12Q240.72-1.54 240.72-4.05L240.72-4.05 240.72-28.69Q240.72-30.18 240.52-30.54L240.52-30.54Q240.11-31.32 237.89-31.32L237.89-31.32 237.76-32.1ZM266.64-2.78L267.47-2.08Q267.42-1.95 267.12-1.49 266.81-1.03 266.34-0.51 265.86 0 265.25 0.4 264.64 0.81 263.98 0.81L263.98 0.81Q263.03 0.81 262.44 0.37 261.86-0.07 261.52-0.73 261.17-1.39 261.03-2.14 260.88-2.88 260.83-3.47L260.83-3.47Q260.66-3.32 260.2-2.64 259.73-1.95 258.95-1.18 258.17-0.42 257.04 0.2 255.9 0.81 254.41 0.81L254.41 0.81Q253.68 0.81 252.88 0.61 252.09 0.42 251.46-0.06 250.82-0.54 250.41-1.35 249.99-2.17 249.99-3.39L249.99-3.39Q249.99-5.13 251.14-6.27 252.29-7.42 254-8.08 255.7-8.74 257.13-9.05 258.56-9.35 260.54-9.74L260.54-9.74 260.54-13.82Q260.54-14.36 260.5-15.17 260.47-15.99 260.21-16.76 259.95-17.53 259.38-18.08 258.81-18.63 257.73-18.63L257.73-18.63Q256.41-18.63 255.57-18.12 254.73-17.6 254.34-17.19 253.95-16.77 253.26-15.97L253.26-15.97Q252.43-15.87 251.96-16 251.48-16.14 251.18-16.42 250.87-16.7 250.87-17.19L250.87-17.19Q250.87-17.9 251.95-18.53 253.02-19.17 254.74-19.67 256.46-20.17 258-20.17L258-20.17Q259.39-20.17 260.34-19.76 261.3-19.36 261.91-18.66 262.52-17.97 262.83-17.05 263.15-16.14 263.29-15.11 263.42-14.09 263.43-13.01 263.44-11.94 263.44-10.94L263.44-10.94Q263.44-9.08 263.4-7.32 263.35-5.57 263.42-4.19 263.49-2.81 263.8-1.97 264.1-1.12 264.81-1.12L264.81-1.12Q265.71-1.12 266.64-2.78L266.64-2.78ZM260.54-6.13L260.54-8.13Q258.56-7.84 257.16-7.47 255.75-7.1 254.94-6.54 254.12-5.98 253.69-5.29 253.26-4.59 253.26-3.59L253.26-3.59Q253.26-1.15 255.41-1.15L255.41-1.15Q256.19-1.15 257.02-1.71 257.85-2.27 258.56-3.06 259.27-3.86 259.81-4.71 260.34-5.57 260.54-6.13L260.54-6.13Z" opacity="1" transform="matrix(1,0,0,1,0,0)" fill="#e1e587" class="wordmark-text-0" data-fill-palette-color="primary" id="text-0"></path></svg></g></svg></g><g transform="matrix(1,0,0,1,0,91.0023532773773)"><svg viewBox="0 0 88.35450086985685 45.498379003733724" height="45.498379003733724" width="88.35450086985685"><g transform="matrix(1,0,0,1,0,0)"><svg width="88.35450086985685" viewBox="3 -34.55 68.55 35.3" height="45.498379003733724" data-palette-color="#e1e587"><path d="M10.7-34.55Q15.05-34.55 18.23-33.23 21.4-31.9 23.38-28.13 25.35-24.35 25.35-17.45L25.35-17.45Q25.35-7.7 21.48-3.85 17.6 0 11.35 0L11.35 0 3 0 3-34.55 10.7-34.55ZM11.65-29.8L9.35-29.8 9.35-4.75 11.7-4.75Q13.95-4.75 15.48-5.8 17-6.85 17.88-9.65 18.75-12.45 18.75-17.45L18.75-17.45Q18.75-22.55 17.82-25.25 16.9-27.95 15.38-28.88 13.85-29.8 11.65-29.8L11.65-29.8ZM48.8-13.85Q48.8-13.4 48.65-11.3L48.65-11.3 35-11.3Q35.2-7.2 36.42-5.58 37.65-3.95 39.9-3.95L39.9-3.95Q41.45-3.95 42.7-4.48 43.95-5 45.4-6.15L45.4-6.15 47.95-2.65Q44.45 0.75 39.55 0.75L39.55 0.75Q34.35 0.75 31.57-2.85 28.8-6.45 28.8-13L28.8-13Q28.8-19.55 31.45-23.35 34.1-27.15 38.95-27.15L38.95-27.15Q43.6-27.15 46.2-23.78 48.8-20.4 48.8-13.85L48.8-13.85ZM42.8-15.3L42.8-15.65Q42.8-19.4 41.9-21.13 41-22.85 39-22.85L39-22.85Q37.15-22.85 36.17-21.18 35.2-19.5 35-15.3L35-15.3 42.8-15.3ZM65.5-26.45L71.55-26.45 64.65 0 57.4 0 50.3-26.45 56.65-26.45 61-4.95 65.5-26.45Z" opacity="1" transform="matrix(1,0,0,1,0,0)" fill="#e1e587" class="slogan-text-1" data-fill-palette-color="secondary" id="text-1"></path></svg></g></svg></g></svg></g></svg></g><g><svg viewBox="0 0 214.12320324535202 188.64401201249547" height="188.64401201249547" width="214.12320324535202"><g><svg xmlns="http://www.w3.org/2000/svg" xmlns:xlink="http://www.w3.org/1999/xlink" version="1.1" x="0" y="0" viewBox="6.3 11.5 87.4 77" style="enable-background:new 0 0 100 100;" xml:space="preserve" height="188.64401201249547" width="214.12320324535202" class="icon-icon-0" data-fill-palette-color="accent" id="icon-0"><path d="M72.3 12.3L72.3 12.3 72.3 12.3l-0.4-0.8H28.2L6.3 50l21.8 38.5h43.7L93.7 50 72.3 12.3zM33.3 25.3L9.9 47.7l18.6-32.8L33.3 25.3zM70.7 14.8l6.4 35.7L36.9 25.8 70.7 14.8zM35.5 27.3l41 25.2-41 23.3V27.3zM77 54.5l-7.2 30.8-32.6-8.1L77 54.5zM33.5 75L9.9 50.5l23.6-22.7V75zM33.2 77.6l-4.6 7.7L11.5 55.1 33.2 77.6zM35 78.6l31.4 7.9H30.2L35 78.6zM79.3 53.3l11.6-2.5L72.1 84 79.3 53.3zM90.7 48.9l-11.4 2.5-5.9-33.1L90.7 48.9zM35 24.3l-5-10.8h38.2L35 24.3z" fill="#f7f7ee" data-fill-palette-color="accent"></path></svg></g></svg></g></svg></g><defs></defs></svg><rect width="395.52" height="118.99469419037628" fill="none" stroke="none" visibility="hidden"></rect></g></svg></g></svg>